<svg width="17" height="17" viewBox="0 0 17 17" fill="none" xmlns="http://www.w3.org/2000/svg">
<path d="M5 12.0001L8 11.0001L14 4.99976L12 2.99976L6 9.00009L5 12.0001ZM2.46982 17.0016H7.24163H11.7265C13.1767 17.0016 14 16.172 14 14.5634V6.00009L12 8.00009V13.6195C12 14.5315 11.4997 15.0001 10.8284 15.0001H3.36157C2.4813 15.0001 2 14.5315 2 13.6195V6.38065C2 5.46872 2.4813 5.00009 3.36157 5.00009H9L11 3.00009L2.46982 2.97925C0.835938 2.97925 0 3.80252 0 5.42373V14.5634C0 16.1846 0.835938 17.0016 2.46982 17.0016Z" fill="#394456"/>
<path d="M14.2929 0.707107C14.6834 0.316583 15.3166 0.316583 15.7071 0.707107L16.2929 1.29289C16.6834 1.68342 16.6834 2.31658 16.2929 2.70711L15 4L13 2L14.2929 0.707107Z" fill="#394456"/>
</svg>
