<svg width="20" height="20" viewBox="0 0 20 20" fill="none" xmlns="http://www.w3.org/2000/svg">
<path d="M7.97502 10.3833L5.43335 12.925" stroke="#995E34" stroke-width="1.5" stroke-miterlimit="10" stroke-linecap="round" stroke-linejoin="round"/>
<path d="M5.45831 10.4084L7.99998 12.9501" stroke="#995E34" stroke-width="1.5" stroke-miterlimit="10" stroke-linecap="round" stroke-linejoin="round"/>
<path d="M11.275 11.6667H11.2834" stroke="#995E34" stroke-width="2" stroke-miterlimit="10" stroke-linecap="round" stroke-linejoin="round"/>
<path d="M14.5583 11.6667H14.5667" stroke="#995E34" stroke-width="2" stroke-miterlimit="10" stroke-linecap="round" stroke-linejoin="round"/>
<path d="M12.9167 13.3167V13.3" stroke="#995E34" stroke-width="2" stroke-miterlimit="10" stroke-linecap="round" stroke-linejoin="round"/>
<path d="M12.9167 10.0333V10.0166" stroke="#995E34" stroke-width="2" stroke-miterlimit="10" stroke-linecap="round" stroke-linejoin="round"/>
<path d="M7.50002 18.3333H12.5C16.6667 18.3333 18.3334 16.6667 18.3334 12.5V10.8333C18.3334 6.66667 16.6667 5 12.5 5H7.50002C3.33335 5 1.66669 6.66667 1.66669 10.8333V12.5C1.66669 16.6667 3.33335 18.3333 7.50002 18.3333Z" stroke="#995E34" stroke-width="1.5" stroke-linecap="round" stroke-linejoin="round"/>
<path d="M10.8417 1.66675L10.8334 2.50841C10.825 2.96675 10.4584 3.33341 10 3.33341H9.97503C9.51669 3.33341 9.15002 3.70841 9.15002 4.16675C9.15002 4.62508 9.52502 5.00008 9.98336 5.00008H10.8167" stroke="#995E34" stroke-width="1.5" stroke-linecap="round" stroke-linejoin="round"/>
</svg>
