<svg width="300" height="211" viewBox="0 0 300 211" fill="none" xmlns="http://www.w3.org/2000/svg">
<g clip-path="url(#clip0_159_6495)">
<path d="M237.069 210.606C235.577 210.605 234.093 210.4 232.657 209.996L173.04 194.039L173.215 193.411L232.832 209.369C234.211 209.756 235.636 209.953 237.069 209.954C244.085 209.954 250.307 205.889 252.201 199.135L294.639 47.7937L294.732 47.4643C295.846 43.4542 295.326 39.1658 293.285 35.5384C291.244 31.911 287.849 29.2405 283.843 28.1117L188.014 1.24018C184.003 0.120632 179.711 0.637839 176.08 2.67836C172.449 4.71889 169.776 8.11614 168.646 12.125L165.316 24.0012L164.689 23.8254L168.019 11.9491C169.195 7.77389 171.979 4.23563 175.761 2.11045C179.542 -0.0147196 184.012 -0.553281 188.19 0.6129L284.018 27.4844C288.139 28.6454 291.642 31.3735 293.777 35.0848C295.911 38.7962 296.508 43.1957 295.439 47.3416L295.442 47.3424L295.355 47.656L252.828 199.311C250.856 206.345 244.375 210.606 237.069 210.606Z" fill="#2F2E41"/>
<path d="M169.042 27.3832L170.133 27.6893L173.492 28.6307L173.844 27.3734L172.586 27.0216L173.69 23.0835L176.345 20.7773L177.052 28.2757L175.098 27.7252L174.746 28.9825L179.762 30.3897L180.114 29.1323L179.049 28.8359L178.026 19.318L183.238 14.7871L184.7 15.1975L185.052 13.9402L180.033 12.533L179.681 13.7903L181.335 14.2529L174.707 19.4613L176.544 12.9108L177.801 13.2626L178.153 12.0053L173.134 10.5981L172.782 11.8555L174.664 12.3832L170.707 26.4939L168.824 25.9662L168.775 26.1356L168.573 26.8652L169.042 27.3832Z" fill="#995E34"/>
<path d="M177.117 39.2722C175.864 39.8151 174.641 40.4251 173.453 41.0995C173.234 41.2233 173.016 41.3504 172.801 41.4774V37.4481C172.803 35.9986 172.598 34.5563 172.192 33.1647C172.381 33.0474 172.573 32.9204 172.762 32.7934C172.935 32.6794 173.111 32.5621 173.283 32.4448C174.355 34.8303 175.638 37.1152 177.117 39.2722Z" fill="#995E34"/>
<path d="M236.817 199.297L235.356 198.887L235.004 200.142L240.022 201.549L240.374 200.295L238.721 199.831L245.348 194.621L243.51 201.174L242.256 200.822L241.904 202.077L246.922 203.484L247.274 202.23L245.392 201.702L249.35 187.588L251.232 188.116L251.583 186.861L246.565 185.454L246.213 186.709L247.468 187.06L246.363 191L243.71 193.306L243.005 185.809L244.959 186.357L245.31 185.102L240.293 183.695L239.941 184.95L241.007 185.249L242.03 194.766L236.817 199.297Z" fill="#995E34"/>
<path d="M242.937 174.811C245.285 173.804 247.519 172.548 249.601 171.066C250.716 173.43 251.998 175.711 253.438 177.893C251.104 178.931 248.873 180.185 246.773 181.638C245.7 179.253 244.416 176.968 242.937 174.811Z" fill="#995E34"/>
<path d="M198.989 106.991C198.989 106.991 197.342 117.692 196.852 118.232C196.362 118.771 200.272 131.37 200.272 131.37L212.809 124.06C212.809 124.06 215.249 110.535 216.052 110.084C216.855 109.632 198.989 106.991 198.989 106.991Z" fill="#FFB8B8"/>
<path opacity="0.1" d="M198.989 106.991C198.989 106.991 197.342 117.692 196.852 118.232C196.362 118.771 200.272 131.37 200.272 131.37L212.809 124.06C212.809 124.06 215.249 110.535 216.052 110.084C216.855 109.632 198.989 106.991 198.989 106.991Z" fill="black"/>
<path d="M208.689 117.352C215.525 117.352 221.066 111.811 221.066 104.975C221.066 98.1384 215.525 92.5967 208.689 92.5967C201.853 92.5967 196.311 98.1384 196.311 104.975C196.311 111.811 201.853 117.352 208.689 117.352Z" fill="#FFB8B8"/>
<path d="M203.324 124.106L202.245 123.127L197.397 116.227C197.397 116.227 196.84 115.861 196.313 117.743L195.785 119.624L191.23 121.392L181.151 164.574L208.123 172.137L219.231 128.905L214.014 123.383L213.436 120.719L205.381 124.007L203.324 124.106Z" fill="white"/>
<path d="M172.801 168.999L173.453 169.181L215.459 180.96L229.505 134.494C229.505 134.494 226.182 131.868 223.583 131.477C223.583 131.477 219.218 126.533 217.339 126.005C215.456 125.477 213.375 120.836 213.375 120.836C213.375 120.836 211.176 128.676 207.397 133.705C203.619 138.735 197.039 156.174 197.039 156.174L195.182 124.191L197.267 116.148C196.055 116.866 194.952 117.754 193.99 118.784C192.521 120.399 188.772 121.715 188.772 121.715C188.772 121.715 178.896 124.36 177.15 124.549C175.407 124.735 174.603 125.188 174.603 125.188L173.453 133.1L172.801 137.582V168.999Z" fill="#2F2E41"/>
<path d="M178.534 150.986C178.143 153.582 174.124 164.295 174.124 164.295L173.453 164.969L172.801 165.624V125.946C172.983 125.75 173.205 125.595 173.453 125.494C173.821 125.341 174.207 125.238 174.603 125.188L175.86 125.539C175.86 125.539 178.925 148.386 178.534 150.986Z" fill="#2F2E41"/>
<path d="M207.147 164.759C207.147 164.759 213.312 153.632 217.979 156.294C222.645 158.956 215.164 166.33 215.164 166.33L207.147 164.759Z" fill="#FFB8B8"/>
<path d="M188.066 160.423C188.066 160.423 176.235 156.768 175.972 157.709C175.708 158.649 172.469 164.169 173.409 164.433C174.35 164.696 181.652 166.406 181.564 166.719C181.476 167.033 185.064 168.716 185.064 168.716L188.066 160.423Z" fill="#FFB8B8"/>
<path d="M211.129 125.241L203.599 125.537L202.031 125.097L195.753 120.929L193.674 127.151L201.592 126.665L203.16 127.105L209.67 131.637L211.129 125.241Z" fill="#995E34"/>
<path d="M190.896 172.044L189.739 174.507L173.127 169.947L172.801 168.999V163.777L173.453 164.031L174.124 164.295L190.896 172.044Z" fill="#2F2E41"/>
<path d="M191.516 161.391C191.516 161.391 187.614 159.62 187.526 159.934C187.438 160.247 182.203 169.266 183.457 169.618C184.712 169.97 189.153 172.23 189.153 172.23L191.516 161.391Z" fill="white"/>
<path d="M227.31 133.877L229.505 134.493C229.505 134.493 230.76 134.845 230.859 136.902C230.959 138.96 232.661 148.571 231.858 149.023C231.055 149.474 230.829 149.073 231.281 149.876C231.732 150.679 232.134 150.453 231.644 150.993C231.155 151.532 230.031 168.808 226.391 174.553C222.75 180.298 221.645 183.033 220.39 182.681L187.872 173.563C187.872 173.563 189.32 160.775 190.663 160.814C192.005 160.852 213.998 165.666 213.998 165.666C213.998 165.666 222.517 132.872 227.31 133.877Z" fill="#2F2E41"/>
<path d="M201.396 91.4082L199.365 89.9517C199.365 89.9517 205.419 86.5493 211.882 88.8052L210.551 86.4362C210.551 86.4362 215.535 86.0598 218.436 91.5299C219.961 94.4054 221.714 97.7742 222.43 101.216L224.852 101.895L223.274 103.634L226.245 106.647L222.716 105.266C222.57 107.107 221.946 108.879 220.904 110.405L219.448 112.436C219.448 112.436 218.003 104.935 218.234 104.113L217.657 106.168C217.657 106.168 215.915 103.684 216.261 102.451L214.624 103.544L214.641 101.109L206.4 101.238L208.153 99.7335L203.251 99.0243L205.736 97.2818C205.736 97.2818 199.641 98.4555 198.802 100.659C197.962 102.863 194.482 104.992 194.482 104.992L193.825 102.59C193.825 102.59 194.569 92.8201 201.396 91.4082Z" fill="#2F2E41"/>
<path d="M197.14 95.8608L197.237 95.439C198.178 91.3413 190.938 83.7206 190.865 83.6441L190.736 83.5099L190.787 83.3309C190.93 82.82 191.504 82.3663 196.539 83.4576C198.499 83.8825 200.454 84.4004 201.272 84.6225C201.181 82.2828 198.28 79.1828 198.249 79.15L197.884 78.7635L198.395 78.6138C201.738 77.6337 205.652 80.8844 206.903 82.0355L208.993 74.5796L213.131 80.6905C215.67 76.8883 219.344 77.0424 219.505 77.0512L220.021 77.0794L219.773 77.5327C218.032 80.7169 217.719 82.8084 217.701 83.8395C222.331 78.3382 226.504 78.8174 226.686 78.8414L227.318 78.9249L226.88 79.3882C220.818 85.7937 220.104 94.2436 220.097 94.3281L220.075 94.6129L197.14 95.8608ZM191.586 83.4615C192.866 84.8489 198.402 91.1101 197.943 95.1646L219.478 93.9932C219.655 92.4858 220.747 85.313 225.896 79.4979C224.493 79.6233 221.183 80.4231 217.696 84.8795L217.296 85.3901L217.125 84.7647C217.098 84.6662 216.515 82.3753 218.934 77.7215C217.825 77.8264 215.244 78.4068 213.419 81.4525L213.157 81.8909L209.241 76.108L207.232 83.2742L206.838 82.8748C206.794 82.8302 202.593 78.6243 199.1 79.1258C199.997 80.1697 202.142 82.9193 201.907 85.0809L201.866 85.4633L201.495 85.3594C197.382 84.206 192.684 83.2217 191.586 83.4615Z" fill="#995E34"/>
<path d="M228.309 77.1254C228.086 77.063 227.887 76.936 227.737 76.7605C227.587 76.585 227.492 76.3689 227.464 76.1395C227.437 75.91 227.478 75.6776 227.583 75.4715C227.687 75.2655 227.851 75.0951 228.052 74.9819C228.253 74.8686 228.484 74.8177 228.714 74.8355C228.945 74.8533 229.165 74.939 229.346 75.0818C229.528 75.2246 229.663 75.418 229.735 75.6377C229.807 75.8574 229.812 76.0934 229.749 76.3159C229.665 76.614 229.467 76.8667 229.197 77.0185C228.927 77.1703 228.607 77.2087 228.309 77.1254ZM228.764 75.5027C228.666 75.4751 228.561 75.4773 228.464 75.509C228.367 75.5408 228.281 75.6006 228.218 75.681C228.155 75.7614 228.117 75.8587 228.109 75.9606C228.101 76.0626 228.124 76.1645 228.174 76.2537C228.224 76.3428 228.299 76.4151 228.39 76.4613C228.482 76.5076 228.584 76.5258 228.686 76.5136C228.787 76.5015 228.883 76.4595 228.961 76.393C229.038 76.3265 229.095 76.2384 229.122 76.14C229.159 76.008 229.142 75.8667 229.075 75.7473C229.008 75.6278 228.896 75.5399 228.764 75.5027Z" fill="#995E34"/>
<path d="M220.195 74.8505C219.973 74.7881 219.774 74.6611 219.623 74.4856C219.473 74.3101 219.378 74.094 219.351 73.8646C219.323 73.6351 219.364 73.4027 219.469 73.1966C219.573 72.9906 219.737 72.8202 219.938 72.707C220.14 72.5937 220.37 72.5428 220.601 72.5606C220.831 72.5784 221.051 72.6641 221.233 72.8069C221.414 72.9497 221.55 73.1431 221.621 73.3628C221.693 73.5825 221.698 73.8185 221.636 74.041C221.552 74.3391 221.353 74.5918 221.083 74.7436C220.813 74.8954 220.494 74.9338 220.195 74.8505ZM220.65 73.2278C220.552 73.2002 220.447 73.2024 220.35 73.2341C220.253 73.2659 220.167 73.3257 220.104 73.4061C220.041 73.4865 220.003 73.5838 219.995 73.6857C219.987 73.7877 220.01 73.8896 220.06 73.9788C220.11 74.0679 220.186 74.1401 220.277 74.1864C220.368 74.2327 220.471 74.2509 220.572 74.2387C220.674 74.2266 220.769 74.1846 220.847 74.1181C220.925 74.0516 220.981 73.9635 221.008 73.8651C221.045 73.7331 221.028 73.5919 220.961 73.4724C220.894 73.3529 220.782 73.265 220.65 73.2278Z" fill="#995E34"/>
<path d="M207.862 73.58C207.639 73.5176 207.44 73.3906 207.29 73.2151C207.14 73.0396 207.045 72.8235 207.017 72.5941C206.99 72.3646 207.031 72.1322 207.135 71.9261C207.24 71.7201 207.403 71.5497 207.605 71.4365C207.806 71.3232 208.037 71.2723 208.267 71.2901C208.497 71.3079 208.717 71.3936 208.899 71.5364C209.081 71.6792 209.216 71.8726 209.288 72.0923C209.36 72.312 209.365 72.548 209.302 72.7705C209.218 73.0686 209.019 73.3213 208.749 73.4731C208.479 73.6249 208.16 73.6633 207.862 73.58ZM208.317 71.9573C208.218 71.9297 208.114 71.9319 208.017 71.9636C207.92 71.9954 207.834 72.0552 207.771 72.1356C207.708 72.216 207.67 72.3133 207.662 72.4152C207.654 72.5171 207.676 72.6191 207.727 72.7083C207.777 72.7974 207.852 72.8696 207.943 72.9159C208.034 72.9622 208.137 72.9804 208.239 72.9682C208.34 72.9561 208.436 72.9141 208.513 72.8476C208.591 72.781 208.647 72.693 208.675 72.5946C208.712 72.4626 208.695 72.3213 208.628 72.2019C208.56 72.0824 208.449 71.9944 208.317 71.9573Z" fill="#995E34"/>
<path d="M188.172 82.9364C187.95 82.874 187.751 82.7471 187.601 82.5716C187.45 82.3961 187.355 82.1799 187.328 81.9505C187.3 81.7211 187.342 81.4886 187.446 81.2826C187.551 81.0765 187.714 80.9061 187.916 80.7929C188.117 80.6797 188.347 80.6287 188.578 80.6465C188.808 80.6643 189.028 80.75 189.21 80.8928C189.392 81.0356 189.527 81.2291 189.599 81.4487C189.67 81.6684 189.675 81.9044 189.613 82.1269C189.529 82.4251 189.33 82.6778 189.06 82.8295C188.79 82.9813 188.471 83.0197 188.172 82.9364ZM188.628 81.3137C188.529 81.2861 188.425 81.2883 188.327 81.3201C188.23 81.3518 188.145 81.4117 188.082 81.492C188.018 81.5724 187.98 81.6697 187.973 81.7717C187.965 81.8736 187.987 81.9756 188.037 82.0647C188.087 82.1538 188.163 82.2261 188.254 82.2724C188.345 82.3186 188.448 82.3368 188.549 82.3247C188.651 82.3125 188.747 82.2705 188.824 82.204C188.902 82.1375 188.958 82.0495 188.986 81.951C189.023 81.819 189.006 81.6778 188.938 81.5583C188.871 81.4389 188.759 81.3509 188.628 81.3137Z" fill="#995E34"/>
<path d="M195.786 77.6322C195.564 77.5698 195.365 77.4429 195.214 77.2674C195.064 77.0919 194.969 76.8757 194.941 76.6463C194.914 76.4169 194.955 76.1844 195.06 75.9784C195.164 75.7723 195.328 75.6019 195.529 75.4887C195.731 75.3755 195.961 75.3245 196.191 75.3423C196.422 75.3601 196.642 75.4458 196.823 75.5886C197.005 75.7314 197.14 75.9249 197.212 76.1445C197.284 76.3642 197.289 76.6002 197.226 76.8227C197.142 77.1209 196.944 77.3735 196.674 77.5253C196.404 77.6771 196.084 77.7155 195.786 77.6322ZM196.241 76.0095C196.143 75.9819 196.038 75.9841 195.941 76.0159C195.844 76.0476 195.758 76.1074 195.695 76.1878C195.632 76.2682 195.594 76.3655 195.586 76.4675C195.578 76.5694 195.601 76.6714 195.651 76.7605C195.701 76.8496 195.776 76.9219 195.867 76.9682C195.959 77.0144 196.062 77.0327 196.163 77.0205C196.265 77.0083 196.36 76.9663 196.438 76.8998C196.515 76.8333 196.572 76.7452 196.599 76.6468C196.636 76.5148 196.619 76.3736 196.552 76.2541C196.485 76.1347 196.373 76.0467 196.241 76.0095Z" fill="#995E34"/>
<path d="M234.616 187.347L234.303 187.259L172.902 170.042L173.077 169.414L234.165 186.544L272.775 48.8582L186.681 24.7168L173.55 71.5458L172.923 71.3699L186.231 23.9136L186.544 24.0015L273.577 48.4071L273.489 48.7204L234.616 187.347Z" fill="#2F2E41"/>
<path d="M13.5616 199.952C17.6099 207.46 26.202 210.683 26.202 210.683C26.202 210.683 28.2303 201.733 24.182 194.225C20.1336 186.718 11.5416 183.495 11.5416 183.495C11.5416 183.495 9.51322 192.444 13.5616 199.952Z" fill="#2F2E41"/>
<path d="M16.3441 197.482C23.6531 201.879 26.468 210.614 26.468 210.614C26.468 210.614 17.4328 212.218 10.1238 207.821C2.8149 203.424 0 194.69 0 194.69C0 194.69 9.03522 193.085 16.3441 197.482Z" fill="#995E34"/>
<path d="M172.762 32.7937C172.202 30.9474 171.311 29.218 170.134 27.6895C169.714 27.1432 169.261 26.6243 168.775 26.1357C167.287 24.6378 165.518 23.4493 163.568 22.6386C161.619 21.828 159.528 21.4113 157.417 21.4126H57.8925C53.6409 21.4169 49.5646 23.1078 46.5582 26.1141C43.5519 29.1205 41.861 33.1968 41.8567 37.4484V194.953C41.861 199.205 43.5519 203.281 46.5582 206.288C49.5646 209.294 53.6409 210.985 57.8925 210.989H157.417C161.669 210.985 165.745 209.294 168.751 206.288C171.758 203.281 173.448 199.205 173.453 194.953V37.4484C173.454 35.8712 173.222 34.3025 172.762 32.7937ZM172.801 194.953C172.796 199.032 171.174 202.942 168.29 205.826C165.406 208.71 161.496 210.333 157.417 210.338H57.8925C53.8138 210.333 49.9036 208.71 47.0196 205.826C44.1355 202.942 42.5131 199.032 42.5082 194.953V37.4484C42.5131 33.3698 44.1355 29.4595 47.0196 26.5755C49.9036 23.6914 53.8138 22.069 57.8925 22.0641H157.417C159.505 22.0631 161.572 22.4885 163.49 23.314C165.409 24.1396 167.138 25.3481 168.573 26.8654C168.733 27.0348 168.889 27.2074 169.042 27.3833C171.467 30.1759 172.802 33.7501 172.801 37.4484V194.953Z" fill="#2F2E41"/>
<path d="M57.7336 46.7248C57.7155 46.6824 57.6931 46.6438 57.6733 46.6029C58.4079 45.1654 58.7787 43.5695 58.753 41.9554C58.753 36.906 55.5975 33.3794 51.0797 33.3794C46.5619 33.3794 43.4065 36.906 43.4065 41.9554C43.4065 47.0047 46.5619 50.5313 51.0797 50.5313C52.1461 50.5529 53.2041 50.3386 54.178 49.9037C55.1519 49.4688 56.0177 48.824 56.7135 48.0156C58.1601 50.3563 60.9565 50.6652 61.0853 50.6781L61.2378 49.1812C61.1326 49.1699 58.6501 48.8794 57.7336 46.7248ZM51.0797 49.0268C47.4476 49.0268 44.9111 46.1189 44.9111 41.9554C44.9111 37.7918 47.4476 34.884 51.0797 34.884C54.7118 34.884 57.2484 37.7918 57.2484 41.9554C57.2631 43.1424 57.029 44.3193 56.5611 45.4103C54.3154 44.0459 50.1374 44.8612 49.5708 44.9806L49.8802 46.453C51.4149 46.1317 54.468 45.8739 55.797 46.7077C55.2513 47.4411 54.5389 48.034 53.7186 48.4373C52.8983 48.8405 51.9937 49.0426 51.0797 49.0268Z" fill="#995E34"/>
<path d="M51.6287 54.1099C51.1391 53.621 50.4753 53.3464 49.7833 53.3467C49.0913 53.3469 48.4277 53.6219 47.9384 54.1112C47.4491 54.6006 47.1741 55.2642 47.1738 55.9562C47.1736 56.6482 47.4481 57.3119 47.9371 57.8016L51.6287 61.4932L55.3204 57.8016C55.8083 57.3117 56.0819 56.6483 56.0812 55.9568C56.0805 55.2654 55.8056 54.6025 55.3167 54.1136C54.8278 53.6247 54.1649 53.3498 53.4735 53.3491C52.7821 53.3484 52.1186 53.622 51.6287 54.1099Z" fill="#995E34"/>
<path d="M157.576 186.685C157.594 186.728 157.616 186.766 157.636 186.807C156.902 188.245 156.531 189.84 156.557 191.455C156.557 196.504 159.712 200.031 164.23 200.031C168.748 200.031 171.903 196.504 171.903 191.455C171.903 186.405 168.748 182.879 164.23 182.879C163.163 182.857 162.106 183.071 161.132 183.506C160.158 183.941 159.292 184.586 158.596 185.394C157.15 183.054 154.353 182.745 154.224 182.732L154.072 184.229C154.177 184.24 156.659 184.531 157.576 186.685ZM164.23 184.383C167.862 184.383 170.399 187.291 170.399 191.455C170.399 195.618 167.862 198.526 164.23 198.526C160.598 198.526 158.061 195.618 158.061 191.455C158.047 190.268 158.281 189.091 158.749 188C160.994 189.364 165.172 188.549 165.739 188.429L165.429 186.957C163.895 187.278 160.842 187.536 159.513 186.702C160.058 185.969 160.771 185.376 161.591 184.973C162.411 184.57 163.316 184.367 164.23 184.383Z" fill="#995E34"/>
<path d="M163.681 179.3C164.171 179.789 164.834 180.062 165.526 180.062C166.217 180.061 166.881 179.786 167.37 179.297C167.859 178.808 168.134 178.145 168.134 177.454C168.135 176.762 167.861 176.098 167.373 175.609L163.681 171.917L159.989 175.609C159.501 176.098 159.227 176.762 159.228 177.454C159.228 178.145 159.503 178.808 159.992 179.297C160.481 179.786 161.144 180.061 161.836 180.062C162.528 180.062 163.191 179.789 163.681 179.3Z" fill="#995E34"/>
<path d="M115.683 110.895C111.248 103.402 102.475 103.053 102.475 103.053C102.475 103.053 93.9254 101.959 88.4412 113.371C83.3294 124.008 76.2745 134.279 87.3054 136.769L89.2979 130.567L90.5318 137.23C92.1024 137.343 93.678 137.37 95.2515 137.311C107.065 136.93 118.315 137.423 117.953 133.183C117.471 127.548 119.95 118.105 115.683 110.895Z" fill="#2F2E41"/>
<path d="M99.3233 136.425C99.3447 137.268 99.3383 138.157 98.9192 138.89C98.0883 140.341 96.0601 140.559 94.8401 141.703C93.5571 142.906 93.4118 144.858 93.3507 146.616C93.2868 148.454 93.2325 150.352 93.9032 152.064C94.314 153.007 94.8333 153.9 95.4506 154.723C96.1954 155.796 96.9472 156.865 97.7058 157.929C98.111 158.529 98.5625 159.095 99.0562 159.624C100.415 161.008 102.279 161.774 104.139 162.321C105.342 162.674 106.64 162.949 107.833 162.565C108.622 162.257 109.349 161.81 109.98 161.245C110.867 160.54 111.768 159.821 112.411 158.888C113.413 157.435 113.69 155.616 113.898 153.864C114.512 148.681 114.75 143.461 114.612 138.244C114.638 137.676 114.536 137.109 114.314 136.585C113.697 135.379 112.042 135.121 111.17 134.083C110.425 133.196 110.394 131.93 110.401 130.771L110.417 127.822C110.443 127.573 110.393 127.322 110.273 127.103C110.165 126.985 110.035 126.889 109.89 126.821C109.745 126.753 109.587 126.715 109.427 126.708C107.594 126.404 105.735 126.279 103.878 126.337C102.372 126.383 99.482 126.257 98.1798 127.096C96.9978 127.857 98.4778 129.96 98.7516 131.141C99.1197 132.878 99.3112 134.649 99.3233 136.425Z" fill="#A0616A"/>
<path d="M102.78 131.359C109.365 131.359 114.703 126.021 114.703 119.436C114.703 112.851 109.365 107.513 102.78 107.513C96.195 107.513 90.8569 112.851 90.8569 119.436C90.8569 126.021 96.195 131.359 102.78 131.359Z" fill="#A0616A"/>
<path d="M97.8702 148.969C97.1119 147.841 96.4878 146.629 96.0108 145.357C95.5844 144.068 95.4726 142.628 95.9784 141.369C94.69 140.621 92.9407 141.227 92.0025 142.384C91.0642 143.541 90.777 145.091 90.6943 146.579C90.6116 148.066 90.6993 149.575 90.3756 151.029C89.6595 154.246 87.0023 156.891 86.8047 160.18C86.6103 163.417 88.8296 166.236 89.9213 169.289C90.5831 171.192 90.8597 173.207 90.7351 175.218C90.6997 175.867 90.6589 176.606 91.1169 177.068C91.3552 177.276 91.6372 177.428 91.9422 177.512C97.2105 179.366 102.901 179.526 108.484 179.668L117.705 179.901C118.263 179.968 118.828 179.873 119.334 179.629C120.161 179.121 120.272 177.984 120.286 177.014C120.407 168.657 120.052 160.301 119.696 151.95C119.567 148.924 119.436 145.88 118.795 142.919C118.631 142.165 118.363 141.327 117.667 140.994C117.078 140.712 116.379 140.895 115.767 141.121C112.909 142.184 110.438 144.085 108.679 146.577C106.787 149.27 105.857 152.5 104.005 155.213C102.661 157.182 101.884 155.466 100.988 154.016C99.9494 152.333 98.91 150.651 97.8702 148.969Z" fill="white"/>
<path d="M96.443 141.575C96.2085 141.741 95.9772 141.917 95.7557 142.102C94.9258 142.787 94.182 143.57 93.5407 144.435C92.4792 145.882 91.6343 147.476 91.0325 149.167C89.9511 152.132 89.4821 155.278 89.0326 158.399C88.8364 159.548 88.7307 160.711 88.7166 161.878C88.785 166.164 91.3192 170.135 91.3225 174.425C91.3225 174.588 91.3192 174.747 91.3094 174.91C91.2792 175.612 91.1964 176.311 91.0619 177.001C90.8762 178.008 90.6091 179.001 90.3453 179.992C89.6808 182.474 88.9642 185.047 87.6678 187.226C87.5375 187.448 87.3974 187.666 87.2541 187.878H78.1335C78.2052 187.659 78.2801 187.444 78.3518 187.226C79.9055 182.623 81.4582 178.022 83.0098 173.422C83.4854 172.014 83.9609 170.601 84.2964 169.154C84.6802 167.369 84.9425 165.559 85.0814 163.737C85.4397 159.962 85.6754 156.179 85.7883 152.389C85.8306 151.027 85.86 149.637 86.2997 148.347C86.7119 147.296 87.2571 146.302 87.9218 145.389C88.8632 143.972 89.8046 142.555 90.746 141.138C91.2704 140.35 91.8209 139.539 92.6287 139.047C93.303 138.633 94.1043 138.483 94.8144 138.135C95.2612 137.881 95.69 137.597 96.0978 137.285C97.1596 136.532 98.4072 135.741 99.3225 136.509C99.4709 136.633 99.5985 136.779 99.7004 136.943C99.7525 137.023 99.7993 137.107 99.8404 137.194C100.72 139.096 97.6254 140.737 96.443 141.575Z" fill="#2F2E41"/>
<path d="M126.489 187.878H84.2476C84.4756 187.669 84.7003 187.451 84.9186 187.226C84.9511 187.194 84.9804 187.161 85.013 187.129C86.6287 185.451 86.9967 183.389 87.8078 181.207C88.4169 179.562 89.0261 177.918 89.6352 176.275C89.7316 175.955 89.8898 175.658 90.101 175.399C90.2774 175.217 90.4987 175.084 90.7427 175.015C90.9269 174.958 91.1171 174.923 91.3094 174.91C91.5839 174.892 91.8591 174.892 92.1335 174.91C99.7134 175.301 107.288 175.778 114.857 176.34C115.834 176.415 116.811 176.49 117.788 176.565C118.586 177.158 119.375 177.787 120.127 178.451C122.573 180.601 124.694 183.132 125.909 186.122C126.055 186.484 126.189 186.852 126.3 187.226C126.371 187.441 126.433 187.66 126.489 187.878Z" fill="#2F2E41"/>
<path d="M113.722 110.173L105.054 105.632L93.0847 107.49L90.6082 118.428L96.773 118.191L98.4951 114.172V118.124L101.34 118.015L102.991 111.617L104.022 118.428L114.135 118.221L113.722 110.173Z" fill="#2F2E41"/>
<path d="M126.489 187.878H116.951C116.883 187.663 116.818 187.445 116.756 187.226C116.082 184.803 115.588 182.334 115.277 179.839C115.176 179.125 115.088 178.409 115.007 177.695C114.955 177.243 114.906 176.793 114.857 176.34C114.31 171.311 113.889 166.233 112.352 161.419C112.166 160.835 111.964 160.256 111.769 159.676C111.408 158.678 111.125 157.653 110.922 156.611C110.505 154.226 110.818 151.757 110.388 149.376C110.147 148.047 109.668 146.878 109.378 145.66C109.193 144.924 109.121 144.166 109.163 143.409C109.865 142.746 110.748 142.309 111.7 142.151C112.029 142.096 112.401 142.054 112.599 141.79C112.717 141.589 112.769 141.357 112.749 141.125C112.772 139.589 112.684 138.053 112.485 136.529C112.42 135.995 112.339 135.461 112.241 134.93C112.238 134.904 112.231 134.881 112.228 134.855C113.023 134.51 113.919 134.507 114.782 134.51C115.723 134.513 116.661 134.513 117.599 134.516C119.336 134.523 121.072 134.528 122.808 134.533C124.424 134.536 126.095 134.552 127.564 135.22C129.082 135.914 130.235 137.252 130.997 138.738C131.759 140.223 132.173 141.858 132.547 143.484C132.651 143.934 132.706 144.393 132.71 144.855C132.782 148.523 130.046 152.217 129.772 155.966C129.684 157.181 129.785 158.406 129.674 159.621C129.564 160.839 129.238 162.031 129.179 163.249C129.176 163.311 129.173 163.376 129.173 163.438C129.137 165.024 129.599 166.578 130.134 168.073C130.961 170.396 131.968 172.647 133.007 174.884C134.01 177.05 135.039 179.207 135.964 181.402C136.445 182.421 136.769 183.508 136.925 184.624C137.028 185.521 136.856 186.428 136.433 187.226C136.325 187.424 136.195 187.608 136.046 187.777L136.039 187.783C136.01 187.816 135.981 187.849 135.951 187.878H126.489Z" fill="#2F2E41"/>
<path d="M135.573 184.536C135.533 184.969 135.415 185.392 135.225 185.783C135.208 185.822 135.192 185.858 135.176 185.897C134.987 186.344 134.795 186.783 134.596 187.226C134.498 187.441 134.401 187.66 134.3 187.878H128.906C129.101 187.674 129.281 187.456 129.446 187.226C130.274 186.076 130.752 184.679 131.596 183.438C131.711 183.268 131.843 183.111 131.99 182.969C133.342 181.66 135.658 181.927 135.573 184.536Z" fill="#FFB8B8"/>
<path d="M139.085 187.878C139.154 187.664 139.211 187.447 139.257 187.227C139.296 187.054 139.329 186.884 139.355 186.712C139.528 185.575 139.524 184.412 139.795 183.295C140.176 181.696 141.319 179.803 140.378 178.458C141.11 178.308 141.801 177.998 142.401 177.552C142.961 177.064 143.287 176.217 142.948 175.552C142.612 174.898 141.704 174.464 141.827 173.738C141.889 173.508 141.998 173.292 142.147 173.106C142.641 172.327 142.896 171.42 142.882 170.498C142.867 169.575 142.583 168.677 142.065 167.914C141.769 167.49 141.404 167.119 141.134 166.676C140.838 166.134 140.611 165.558 140.459 164.959C139.519 161.928 138.132 159.054 136.345 156.432C135.949 155.927 135.642 155.359 135.436 154.751C135.316 154.092 135.292 153.42 135.365 152.754C135.43 150.122 134.446 147.552 133.029 145.337C132.925 145.174 132.818 145.015 132.71 144.855C131.342 142.839 129.645 141.07 127.954 139.314C127.257 139.64 126.642 139.852 126.28 140.529C126.103 140.911 125.994 141.322 125.958 141.741C125.495 144.966 125.094 148.21 124.782 151.451C124.625 153.09 124.466 154.741 124.651 156.376C124.837 158.012 125.394 159.65 126.502 160.865C127.195 161.627 128.075 162.194 128.827 162.898C128.948 163.012 129.065 163.129 129.179 163.249C129.721 163.827 130.203 164.459 130.616 165.135C132.421 168.052 133.258 171.464 133.007 174.884C132.961 175.501 132.879 176.115 132.762 176.722C132.619 177.591 132.326 178.428 131.896 179.197C131.554 179.761 131.104 180.253 130.795 180.836C130.485 181.419 130.339 182.145 130.645 182.728C131.104 182.728 131.56 182.809 131.99 182.969C133.004 183.36 133.886 184.033 134.531 184.907C134.769 185.222 134.984 185.553 135.176 185.898C135.418 186.327 135.633 186.771 135.821 187.227C135.899 187.406 135.974 187.591 136.046 187.777C136.062 187.809 136.075 187.843 136.085 187.878H139.085Z" fill="#2F2E41"/>
<path d="M112.453 131.207L105.546 134.219L103.925 134.38L96.5623 132.779L96.887 139.331L104.086 136.001L105.707 135.84L113.419 137.696L112.453 131.207Z" fill="#995E34"/>
<path d="M126.3 187.226C126.371 187.441 126.433 187.659 126.489 187.878H128.905C129.101 187.673 129.281 187.456 129.446 187.226H126.3ZM62.4592 44.2295V187.878H152.524V44.2295H62.4592ZM151.873 187.226H63.1107V44.881H151.873V187.226ZM126.3 187.226C126.371 187.441 126.433 187.659 126.489 187.878H128.905C129.101 187.673 129.281 187.456 129.446 187.226H126.3Z" fill="#2F2E41"/>
<path d="M92.0525 107.074L92.1083 106.794C92.1248 106.711 93.719 98.382 89.6116 90.5776L89.3145 90.0132L89.9459 90.1035C90.1272 90.1295 94.2746 90.7948 97.2478 97.342C97.5088 96.3443 97.7716 94.2458 96.9555 90.71L96.8394 90.2066L97.3436 90.3187C97.5006 90.3535 101.079 91.1972 102.498 95.5438L108.132 90.7769V98.5204C109.647 97.7498 114.293 95.6765 117.248 97.523L117.699 97.8049L117.243 98.0786C117.204 98.1018 113.575 100.304 112.855 102.532C113.703 102.539 115.725 102.568 117.727 102.688C122.869 102.997 123.3 103.589 123.3 104.119V104.305L123.14 104.4C123.049 104.453 114.02 109.836 113.819 114.036L113.799 114.468L92.0525 107.074ZM112.441 103.181H112.056L112.12 102.802C112.477 100.657 115.285 98.5885 116.43 97.8254C113.202 96.3995 108.022 99.315 107.968 99.346L107.48 99.6242V92.1817L102.149 96.6926L102.015 96.1996C101.08 92.7744 98.7516 91.5186 97.7124 91.1183C98.7846 96.2522 97.6047 98.3006 97.5522 98.3882L97.2187 98.9443L96.9717 98.3447C94.8174 93.1122 91.8462 91.4484 90.5289 90.9489C93.9165 97.9381 93.0314 105.139 92.7954 106.639L113.214 113.581C113.867 109.553 120.887 105.019 122.494 104.029C121.502 103.502 116.713 103.181 112.441 103.181Z" fill="#995E34"/>
<path d="M87.678 86.8446C87.678 86.6136 87.7465 86.3877 87.8749 86.1955C88.0033 86.0034 88.1857 85.8536 88.3992 85.7652C88.6127 85.6768 88.8476 85.6536 89.0743 85.6987C89.3009 85.7438 89.5091 85.8551 89.6725 86.0185C89.8359 86.1819 89.9472 86.3901 89.9923 86.6167C90.0374 86.8434 90.0142 87.0783 89.9258 87.2918C89.8374 87.5053 89.6876 87.6877 89.4955 87.8161C89.3033 87.9445 89.0774 88.013 88.8464 88.013C88.5366 88.0127 88.2396 87.8895 88.0206 87.6705C87.8015 87.4514 87.6783 87.1544 87.678 86.8446ZM88.3294 86.8446C88.3294 86.9469 88.3598 87.0468 88.4166 87.1318C88.4734 87.2168 88.5541 87.2831 88.6485 87.3222C88.743 87.3613 88.8469 87.3716 88.9472 87.3516C89.0475 87.3317 89.1396 87.2824 89.2119 87.2102C89.2842 87.1379 89.3334 87.0458 89.3533 86.9455C89.3733 86.8452 89.363 86.7413 89.3239 86.6468C89.2848 86.5524 89.2185 86.4716 89.1335 86.4148C89.0485 86.358 88.9486 86.3277 88.8464 86.3277C88.7093 86.3279 88.5779 86.3824 88.481 86.4793C88.3841 86.5762 88.3296 86.7076 88.3294 86.8446Z" fill="#995E34"/>
<path d="M96.1045 86.8446C96.1045 86.6136 96.173 86.3877 96.3014 86.1955C96.4298 86.0034 96.6123 85.8536 96.8258 85.7652C97.0393 85.6768 97.2742 85.6536 97.5008 85.6987C97.7275 85.7438 97.9356 85.8551 98.099 86.0185C98.2624 86.1819 98.3737 86.3901 98.4188 86.6167C98.4639 86.8434 98.4407 87.0783 98.3523 87.2918C98.2639 87.5053 98.1141 87.6877 97.922 87.8161C97.7298 87.9445 97.504 88.013 97.2729 88.013C96.9631 88.0127 96.6661 87.8895 96.4471 87.6705C96.228 87.4514 96.1048 87.1544 96.1045 86.8446ZM96.756 86.8446C96.756 86.9469 96.7863 87.0468 96.8431 87.1318C96.8999 87.2168 96.9806 87.2831 97.0751 87.3222C97.1695 87.3613 97.2734 87.3716 97.3737 87.3516C97.474 87.3317 97.5661 87.2824 97.6384 87.2102C97.7107 87.1379 97.7599 87.0458 97.7798 86.9455C97.7998 86.8452 97.7896 86.7413 97.7504 86.6468C97.7113 86.5524 97.6451 86.4716 97.5601 86.4148C97.475 86.358 97.3751 86.3277 97.2729 86.3277C97.1358 86.3279 97.0044 86.3824 96.9075 86.4793C96.8106 86.5762 96.7561 86.7076 96.756 86.8446Z" fill="#995E34"/>
<path d="M108.323 88.9516C108.323 88.7205 108.392 88.4946 108.52 88.3025C108.648 88.1103 108.831 87.9606 109.044 87.8721C109.258 87.7837 109.493 87.7606 109.719 87.8057C109.946 87.8507 110.154 87.962 110.318 88.1254C110.481 88.2888 110.592 88.497 110.637 88.7236C110.682 88.9503 110.659 89.1852 110.571 89.3987C110.482 89.6122 110.333 89.7947 110.14 89.9231C109.948 90.0514 109.722 90.12 109.491 90.12C109.182 90.1196 108.885 89.9964 108.666 89.7774C108.447 89.5583 108.323 89.2614 108.323 88.9516ZM108.974 88.9516C108.974 89.0538 109.005 89.1538 109.062 89.2388C109.118 89.3238 109.199 89.39 109.294 89.4292C109.388 89.4683 109.492 89.4785 109.592 89.4586C109.692 89.4386 109.785 89.3894 109.857 89.3171C109.929 89.2448 109.978 89.1527 109.998 89.0524C110.018 88.9522 110.008 88.8482 109.969 88.7538C109.93 88.6593 109.864 88.5786 109.779 88.5218C109.694 88.465 109.594 88.4347 109.491 88.4347C109.354 88.4348 109.223 88.4893 109.126 88.5862C109.029 88.6832 108.975 88.8145 108.974 88.9516Z" fill="#995E34"/>
<path d="M124.755 103.277C124.755 103.046 124.823 102.82 124.952 102.628C125.08 102.436 125.263 102.286 125.476 102.197C125.69 102.109 125.925 102.086 126.151 102.131C126.378 102.176 126.586 102.287 126.749 102.451C126.913 102.614 127.024 102.822 127.069 103.049C127.114 103.275 127.091 103.51 127.003 103.724C126.914 103.937 126.765 104.12 126.572 104.248C126.38 104.377 126.154 104.445 125.923 104.445C125.613 104.445 125.316 104.322 125.097 104.103C124.878 103.884 124.755 103.587 124.755 103.277ZM125.406 103.277C125.406 103.379 125.437 103.479 125.493 103.564C125.55 103.649 125.631 103.715 125.725 103.754C125.82 103.793 125.924 103.804 126.024 103.784C126.124 103.764 126.216 103.715 126.289 103.642C126.361 103.57 126.41 103.478 126.43 103.378C126.45 103.277 126.44 103.173 126.401 103.079C126.362 102.985 126.295 102.904 126.21 102.847C126.125 102.79 126.025 102.76 125.923 102.76C125.786 102.76 125.655 102.815 125.558 102.911C125.461 103.008 125.407 103.14 125.406 103.277Z" fill="#995E34"/>
<path d="M118.856 96.1139C118.856 95.8827 118.925 95.6568 119.053 95.4647C119.181 95.2725 119.364 95.1227 119.577 95.0343C119.791 94.9458 120.026 94.9227 120.253 94.9678C120.479 95.0128 120.687 95.1241 120.851 95.2875C121.014 95.451 121.126 95.6592 121.171 95.8858C121.216 96.1125 121.193 96.3474 121.104 96.5609C121.016 96.7745 120.866 96.9569 120.674 97.0853C120.482 97.2137 120.256 97.2822 120.025 97.2822C119.715 97.2819 119.418 97.1587 119.199 96.9397C118.98 96.7206 118.857 96.4236 118.856 96.1139ZM119.508 96.1139C119.508 96.2161 119.538 96.3161 119.595 96.4011C119.652 96.4861 119.732 96.5524 119.827 96.5915C119.921 96.6307 120.025 96.6409 120.125 96.621C120.226 96.601 120.318 96.5518 120.39 96.4795C120.463 96.4072 120.512 96.3151 120.532 96.2148C120.552 96.1145 120.541 96.0105 120.502 95.916C120.463 95.8216 120.397 95.7408 120.312 95.684C120.227 95.6272 120.127 95.5969 120.025 95.5969C119.888 95.5971 119.756 95.6516 119.659 95.7485C119.562 95.8454 119.508 95.9768 119.508 96.1139Z" fill="#995E34"/>
<path d="M300 210.19H3.90869V210.842H300V210.19Z" fill="#3F3D56"/>
</g>
<defs>
<clipPath id="clip0_159_6495">
<rect width="300" height="210.989" fill="white"/>
</clipPath>
</defs>
</svg>
