<svg width="20" height="5" viewBox="0 0 20 5" fill="none" xmlns="http://www.w3.org/2000/svg">
<path d="M10 0C8.85897 0 7.92395 0.935024 7.92395 2.07607C7.92395 3.21712 8.85897 4.15214 10 4.15214C11.1411 4.15214 12.0761 3.21712 12.0761 2.07607C12.0761 0.935024 11.1411 0 10 0Z" fill="black"/>
<path d="M2.07607 0C0.935024 0 0 0.935024 0 2.07607C0 3.21712 0.935024 4.15214 2.07607 4.15214C3.21712 4.15214 4.15214 3.21712 4.15214 2.07607C4.15214 0.935024 3.21712 0 2.07607 0Z" fill="black"/>
<path d="M17.924 0C16.7829 0 15.8479 0.935024 15.8479 2.07607C15.8479 3.21712 16.7829 4.15214 17.924 4.15214C19.065 4.15214 20 3.21712 20 2.07607C20 0.935024 19.065 0 17.924 0Z" fill="black"/>
</svg>
