<svg width="17" height="20" viewBox="0 0 17 20" fill="none" xmlns="http://www.w3.org/2000/svg">
<path fill-rule="evenodd" clip-rule="evenodd" d="M2.75762 20C2.02626 20 1.32484 19.7095 0.80769 19.1923C0.290535 18.6752 2.27861e-08 17.9737 2.27861e-08 17.2424V8.05029C2.27861e-08 8.01904 2.27861e-08 7.9884 2.27861e-08 7.95837C-3.95894e-05 7.69617 0.0515685 7.43653 0.151878 7.19428C0.252187 6.95202 0.399232 6.7319 0.584616 6.54647L6.32323 0.807855C6.57931 0.551736 6.88333 0.348569 7.21793 0.209956C7.55253 0.0713435 7.91116 0 8.27333 0C8.63551 0 8.99414 0.0713435 9.32874 0.209956C9.66334 0.348569 9.96736 0.551736 10.2234 0.807855L15.962 6.54647C16.3359 6.92088 16.5458 7.42836 16.5457 7.95746C16.5457 7.9881 16.5457 8.01874 16.5457 8.04938V17.2415C16.5457 17.9728 16.2552 18.6742 15.7381 19.1914C15.2209 19.7085 14.5195 19.9991 13.7881 19.9991L2.75762 20ZM9.14988 2.28097L15 8V17.0808C15 17.3246 14.9032 17.5584 14.7308 17.7308C14.5584 17.9032 14.3246 18 14.0808 18H11L11.0305 13.5655C11.0305 12.8342 10.74 12.1328 10.2228 11.6156C9.70565 11.0985 9.23137 10.8079 8.5 10.8079C7.76863 10.8079 7.32484 11.0985 6.80769 11.6156C6.29053 12.1328 6 12.8342 6 13.5655V18H2.91921C2.67542 18 2.44161 17.9032 2.26923 17.7308C2.09684 17.5584 2 17.3246 2 17.0808L1.99652 8L7.85012 2.28097C8.0225 2.10864 8.25626 2.01183 8.5 2.01183C8.74374 2.01183 8.9775 2.10864 9.14988 2.28097Z" fill="#414141"/>
</svg>
