<svg width="17" height="17" viewBox="0 0 17 17" fill="none" xmlns="http://www.w3.org/2000/svg">
<g clip-path="url(#clip0_159_6704)">
<path d="M8.24598 11.3257C8.01532 11.3257 7.79411 11.4174 7.63101 11.5805C7.46791 11.7436 7.3763 11.9648 7.3763 12.1954C7.3763 12.4261 7.46791 12.6473 7.63101 12.8104C7.79411 12.9735 8.01532 13.0651 8.24598 13.0651C8.47664 13.0651 8.69785 12.9735 8.86094 12.8104C9.02404 12.6473 9.11568 12.4261 9.11568 12.1954C9.11568 11.9648 9.02404 11.7436 8.86094 11.5805C8.69785 11.4174 8.47664 11.3257 8.24598 11.3257Z" fill="#995E34" stroke="#995E34" stroke-width="0.4"/>
<path d="M8.39314 4.7403C6.86833 4.7403 6.16864 5.64317 6.16864 6.25372C6.1691 6.34103 6.18721 6.42736 6.22188 6.5075C6.25655 6.58764 6.30706 6.65994 6.37038 6.72006C6.4337 6.78019 6.50854 6.82691 6.59036 6.85739C6.67219 6.88787 6.75933 6.90147 6.84655 6.89742C7.45606 6.89742 7.20833 6.02774 8.35997 6.02774C8.92491 6.02774 9.37582 6.27651 9.37582 6.79584C9.37582 7.40535 8.74351 7.75572 8.37138 8.07188C8.1188 8.27805 7.91858 8.54103 7.78706 8.83937C7.65555 9.13771 7.59648 9.46292 7.61467 9.78845C7.61467 10.3752 7.77223 10.5452 8.23662 10.5452C8.79015 10.5452 8.90314 10.2964 8.90314 10.0818C8.86052 9.81053 8.89758 9.53271 9.00983 9.28209C9.12208 9.03146 9.30468 8.81882 9.53546 8.66999C9.88318 8.43764 10.1763 8.13259 10.3947 7.77591C10.613 7.41923 10.7513 7.01942 10.8001 6.60408C10.798 5.54365 9.83814 4.7403 8.39314 4.7403Z" fill="#995E34" stroke="#995E34" stroke-width="0.4"/>
<path d="M8.49994 0.207266C6.30058 0.207266 4.19131 1.08096 2.63613 2.63613C1.08096 4.19131 0.207266 6.30058 0.207266 8.49994L0.207266 16.1447C0.207266 16.3166 0.275523 16.4814 0.397021 16.6029C0.51852 16.7244 0.683307 16.7926 0.855131 16.7926H8.49994C10.6993 16.7926 12.8086 15.9189 14.3637 14.3637C15.9189 12.8086 16.7926 10.6993 16.7926 8.49994C16.7926 6.30058 15.9189 4.19131 14.3637 2.63613C12.8086 1.08096 10.6993 0.207266 8.49994 0.207266V0.207266ZM8.49994 15.4969H1.503V8.49994C1.503 7.11607 1.91336 5.76329 2.68219 4.61264C3.45103 3.462 4.5438 2.56519 5.82232 2.03561C7.10085 1.50602 8.5077 1.36746 9.86497 1.63744C11.2222 1.90742 12.469 2.57381 13.4475 3.55235C14.4261 4.53089 15.0925 5.77763 15.3624 7.1349C15.6324 8.49218 15.4938 9.89903 14.9643 11.1775C14.4347 12.4561 13.5379 13.5488 12.3872 14.3177C11.2366 15.0865 9.8838 15.4969 8.49994 15.4969Z" fill="#995E34" stroke="#995E34" stroke-width="0.4"/>
</g>
<defs>
<clipPath id="clip0_159_6704">
<rect width="16.4" height="16.4" fill="white" transform="scale(1.03658)"/>
</clipPath>
</defs>
</svg>
