<svg width="28" height="28" viewBox="0 0 28 28" fill="none" xmlns="http://www.w3.org/2000/svg">
<path d="M14 25.6665H19.8334C23.3334 25.6665 25.6667 23.3332 25.6667 19.8332V13.9998C25.6667 10.8498 23.6834 8.5165 20.7667 8.1665C20.5334 8.1665 20.1834 8.1665 19.8334 8.1665H8.16671C7.81671 8.1665 7.58337 8.16648 7.23337 8.28314C4.20004 8.63314 2.33337 10.8498 2.33337 13.9998C2.33337 14.3498 2.33337 14.8165 2.33337 15.1665" stroke="#995E34" stroke-width="1.5" stroke-linecap="round" stroke-linejoin="round"/>
<path d="M20.7666 8.16657C20.5333 8.16657 20.1833 8.16657 19.8333 8.16657H8.16661C7.81661 8.16657 7.58328 8.16654 7.23328 8.28321C7.34994 7.93321 7.58328 7.69989 7.93328 7.34989L11.6666 3.4999C13.2999 1.86657 15.8666 1.86657 17.4999 3.4999L19.5999 5.59989C20.2999 6.29989 20.6499 7.23324 20.7666 8.16657Z" stroke="#995E34" stroke-width="1.5" stroke-linecap="round" stroke-linejoin="round"/>
<path d="M25.6667 14.5835H22.1667C20.8834 14.5835 19.8334 15.6335 19.8334 16.9168C19.8334 18.2002 20.8834 19.2502 22.1667 19.2502H25.6667" stroke="#995E34" stroke-width="1.5" stroke-linecap="round" stroke-linejoin="round"/>
<path d="M6.76849 24.9667C8.83349 24.9667 10.5018 23.2983 10.5018 21.2333C10.5018 19.1683 8.83349 17.5 6.76849 17.5C4.70349 17.5 3.03516 19.1683 3.03516 21.2333C3.03516 23.2983 4.70349 24.9667 6.76849 24.9667Z" stroke="#995E34" stroke-width="1.5" stroke-linecap="round" stroke-linejoin="round"/>
<path d="M2.33337 25.6667L3.50004 24.5" stroke="#995E34" stroke-width="1.5" stroke-linecap="round" stroke-linejoin="round"/>
</svg>
