<svg width="20" height="20" viewBox="0 0 20 20" fill="none" xmlns="http://www.w3.org/2000/svg">
<path d="M15 6C15 6.55228 14.5523 7 14 7H6C5.44772 7 5 6.55228 5 6C5 5.44772 5.44772 5 6 5H14C14.5523 5 15 5.44772 15 6Z" fill="#414141"/>
<path d="M5 10C5 10.5523 5.44772 11 6 11H14C14.5523 11 15 10.5523 15 10C15 9.44772 14.5523 9 14 9H6C5.44772 9 5 9.44772 5 10Z" fill="#414141"/>
<path fill-rule="evenodd" clip-rule="evenodd" d="M1 16C0.447715 16 0 15.5523 0 15V1C0 0.447715 0.447715 0 1 0H19C19.5523 0 20 0.447715 20 1V15C20 15.5523 19.5523 16 19 16H15C14.4477 16 14 16.4477 14 17V19C14 19.5523 13.5523 20 13 20H12C10.9391 20 9.92172 19.5786 9.17157 18.8284C8.65947 18.3163 8.30056 17.6797 8.12435 16.9896C7.98769 16.4545 7.55228 16 7 16H1ZM9 14C9.55229 14 10 14.4477 10 15V16C10 16.5304 10.2107 17.0391 10.5858 17.4142C10.7218 17.5502 10.8753 17.6646 11.0411 17.7552C11.5258 18.0199 12 17.5523 12 17V15C12 14.4477 12.4477 14 13 14H17C17.5523 14 18 13.5523 18 13V3C18 2.44772 17.5523 2 17 2H3C2.44772 2 2 2.44772 2 3V13C2 13.5523 2.44772 14 3 14H9Z" fill="#414141"/>
</svg>
