<svg width="300" height="266" viewBox="0 0 300 266" fill="none" xmlns="http://www.w3.org/2000/svg">
<g clip-path="url(#clip0_159_6603)">
<path d="M286.711 264.925L286.311 264.775C286.223 264.742 277.487 261.395 273.394 253.805C269.301 246.215 271.305 237.076 271.326 236.985L271.42 236.568L271.82 236.718C271.907 236.751 280.644 240.099 284.737 247.688C288.83 255.279 286.826 264.417 286.805 264.509L286.711 264.925ZM274.049 253.452C277.51 259.869 284.414 263.158 286.163 263.909C286.496 262.035 287.539 254.453 284.081 248.042C280.625 241.631 273.718 238.337 271.968 237.584C271.635 239.46 270.593 247.041 274.049 253.452Z" fill="#3F3D56"/>
<path d="M276.521 251.143C283.877 255.568 286.709 264.357 286.709 264.357C286.709 264.357 277.617 265.972 270.262 261.547C262.907 257.122 260.074 248.332 260.074 248.332C260.074 248.332 269.166 246.717 276.521 251.143Z" fill="#995E34"/>
<path d="M158.111 142.17C158.468 141.619 158.937 141.149 159.487 140.792C160.038 140.434 160.658 140.197 161.307 140.096C161.956 139.995 162.618 140.032 163.252 140.205C163.885 140.378 164.475 140.683 164.982 141.099C165.142 141.232 165.293 141.376 165.433 141.529L183.749 138.863L184.769 125.089C184.847 124.032 185.341 123.05 186.144 122.358C186.946 121.666 187.991 121.321 189.047 121.399C190.104 121.477 191.086 121.972 191.778 122.774C192.47 123.576 192.815 124.621 192.737 125.678C192.735 125.702 192.733 125.727 192.731 125.751L190.945 145.078L190.937 145.121C190.705 145.864 190.239 146.512 189.609 146.969C188.979 147.427 188.218 147.669 187.44 147.66L165.896 147.288C165.812 147.415 165.722 147.539 165.625 147.657C165.209 148.164 164.689 148.578 164.102 148.87C163.514 149.163 162.871 149.328 162.215 149.355C161.559 149.382 160.905 149.27 160.295 149.026C159.685 148.782 159.134 148.413 158.677 147.941C158.584 147.846 158.497 147.748 158.414 147.647C157.793 146.882 157.429 145.941 157.375 144.957C157.32 143.974 157.578 142.998 158.111 142.17Z" fill="#FFB7B7"/>
<path d="M195.04 259.608L189.815 259.607L187.33 239.457L195.04 239.457L195.04 259.608Z" fill="#FFB7B7"/>
<path d="M196.372 264.671L179.527 264.671V264.458C179.527 262.719 180.218 261.051 181.447 259.822C182.677 258.592 184.345 257.901 186.083 257.901H186.084L196.372 257.902L196.372 264.671Z" fill="#2F2E41"/>
<path d="M231.544 254.871L226.6 256.557L217.742 238.289L225.04 235.8L231.544 254.871Z" fill="#FFB7B7"/>
<path d="M234.44 259.234L218.497 264.672L218.428 264.47C217.867 262.824 217.982 261.023 218.749 259.462C219.516 257.902 220.871 256.709 222.517 256.148L222.517 256.148L232.255 252.827L234.44 259.234Z" fill="#2F2E41"/>
<path d="M200.792 83.4218C200.792 83.4218 195.593 81.7046 192.25 88.5735C188.907 95.4424 183.708 102.998 183.708 102.998L186.679 103.685C186.679 103.685 187.422 98.8768 189.279 98.1899L188.536 104.372C188.536 104.372 210.82 111.584 220.848 103.685L220.477 101.281C220.477 101.281 221.963 101.624 221.963 103.685L223.077 102.655C223.077 102.655 221.963 100.594 218.62 97.8465C216.426 96.0431 215.672 92.6122 215.413 90.4672C215.207 88.6511 214.429 86.9477 213.19 85.6042C210.968 83.2236 206.921 80.6933 200.792 83.4218Z" fill="#2F2E41"/>
<path d="M202.709 107.42C207.954 107.42 212.206 103.168 212.206 97.9232C212.206 92.6782 207.954 88.4263 202.709 88.4263C197.464 88.4263 193.212 92.6782 193.212 97.9232C193.212 103.168 197.464 107.42 202.709 107.42Z" fill="#FFB7B7"/>
<path d="M190.046 115.241L188.32 114.665C188.32 114.665 184.866 116.104 184.866 118.694C184.866 121.284 184.291 131.644 184.291 131.644L192.061 132.508L190.046 115.241Z" fill="#CBCBCB"/>
<path d="M220.951 171.848C220.235 171.045 219.831 170.012 219.812 168.937C219.793 167.861 220.161 166.815 220.848 165.988L216.001 125.392C215.954 124.435 216.288 123.498 216.931 122.787C217.573 122.075 218.472 121.648 219.429 121.599C220.386 121.55 221.324 121.882 222.036 122.523C222.749 123.165 223.177 124.062 223.229 125.02C223.229 125.033 223.23 125.046 223.23 125.059L227.567 165.698C227.724 165.856 227.869 166.026 228 166.206C228.348 166.687 228.598 167.231 228.735 167.809C228.872 168.386 228.895 168.985 228.8 169.571C228.706 170.157 228.498 170.719 228.186 171.224C227.875 171.73 227.467 172.169 226.986 172.517C226.936 172.553 226.886 172.588 226.835 172.622C226.278 172.99 225.646 173.231 224.985 173.327C224.324 173.422 223.65 173.37 223.012 173.175C222.215 172.933 221.501 172.473 220.951 171.848Z" fill="#FFB7B7"/>
<path d="M216.512 131.645L224.282 130.781C224.282 130.781 223.706 120.421 223.706 117.831C223.706 115.241 220.253 113.802 220.253 113.802L218.526 114.377L216.512 131.645Z" fill="#CBCBCB"/>
<path d="M191.197 146.019C191.197 146.019 184.578 158.121 184.578 172.798C184.578 187.475 184.002 254.817 184.002 254.817C184.002 254.817 192.636 258.846 197.816 253.954L202.421 179.417L220.551 252.515C220.551 252.515 229.185 254.242 233.214 251.364L225.444 200.426C225.444 200.426 222.278 152.653 213.645 149.2C205.011 145.746 191.197 146.019 191.197 146.019Z" fill="#2F2E41"/>
<path d="M192.446 97.9838C195.808 95.5507 198.53 92.7482 200.33 89.4146C200.33 89.4146 206.5 96.27 210.27 96.6127C214.041 96.9555 210.613 88.3863 210.613 88.3863L203.758 86.6724L197.245 87.3579L192.104 90.7856L192.446 97.9838Z" fill="#2F2E41"/>
<path d="M212.206 112.075C212.206 112.075 212.48 111.928 196.09 112.525L189.231 114.414L188.319 114.665C188.319 114.665 189.183 131.932 191.485 135.098C193.787 138.264 193.212 139.99 192.636 140.278C192.061 140.566 190.622 139.99 191.485 141.429C192.348 142.868 193.499 142.005 192.348 142.868C191.197 143.732 190.622 146.897 190.622 146.897L215.947 150.351C215.947 150.351 216.81 139.127 219.113 133.371C221.415 127.616 221.99 125.313 221.99 125.313L220.264 113.802L212.206 112.075Z" fill="#CBCBCB"/>
<path d="M164.057 62.9864H162.601V23.0906C162.601 16.9666 160.168 11.0934 155.838 6.7631C151.508 2.43277 145.634 9.87166e-06 139.51 0L54.9857 0C48.8617 -1.67816e-05 42.9885 2.43272 38.6581 6.76303C34.3278 11.0933 31.895 16.9665 31.895 23.0905V241.962C31.895 248.086 34.3278 253.959 38.6581 258.29C42.9884 262.62 48.8616 265.053 54.9856 265.053H139.51C142.543 265.053 145.545 264.455 148.347 263.295C151.148 262.135 153.694 260.434 155.838 258.29C157.982 256.146 159.683 253.6 160.843 250.799C162.004 247.997 162.601 244.995 162.601 241.962V91.3849H164.057L164.057 62.9864Z" fill="#3F3D56"/>
<path d="M157.686 23.2527V241.802C157.688 244.065 157.245 246.306 156.381 248.397C155.517 250.488 154.25 252.388 152.651 253.99C151.053 255.591 149.154 256.862 147.065 257.729C144.975 258.597 142.735 259.045 140.473 259.047H55.5115C50.9412 259.05 46.5569 257.238 43.3229 254.008C40.0889 250.779 38.2703 246.397 38.2671 241.827V23.2527C38.2655 20.9897 38.7096 18.7486 39.5742 16.6573C40.4387 14.566 41.7067 12.6654 43.3057 11.0641C44.9048 9.46282 46.8035 8.19216 48.8936 7.32468C50.9837 6.45721 53.2242 6.0099 55.4872 6.00831H65.8142C65.3069 7.25223 65.1132 8.60186 65.2503 9.93827C65.3875 11.2747 65.8512 12.5568 66.6006 13.6718C67.35 14.7868 68.3622 15.7003 69.5479 16.3319C70.7336 16.9635 72.0564 17.2938 73.3999 17.2937H121.824C123.168 17.2938 124.49 16.9635 125.676 16.3319C126.862 15.7003 127.874 14.7868 128.623 13.6718C129.373 12.5568 129.837 11.2747 129.974 9.93827C130.111 8.60186 129.917 7.25223 129.41 6.00831H140.442C145.011 6.00421 149.395 7.81547 152.629 11.0436C155.863 14.2718 157.682 18.6524 157.686 23.2218L157.686 23.2527Z" fill="white"/>
<path d="M157.686 55.5865V48.1423H146.42V7.07287C144.506 6.36616 142.482 6.00568 140.442 6.00832H138.975V48.1423H99.8936V17.2937H92.4494V48.1423H59.6951V6.00835H55.5115C54.4173 6.00665 53.3254 6.1101 52.2509 6.31729V48.1423H38.2671V55.5865H52.2509V72.8051L38.2673 80.8782V89.4762L52.2509 81.4031V132.634H38.2671V140.078H52.2509V214.147H38.2671V221.591H52.2509V258.738C53.3254 258.945 54.4173 259.048 55.5115 259.047H59.6951V221.591H92.4494V259.047H99.8936V221.591H138.975V259.047H140.442C142.482 259.049 144.506 258.689 146.42 257.982V221.591H157.686V214.147H146.42V181.765H157.586V174.321H146.42V140.078H157.686V132.634H146.42V87.2242H157.686V79.7801H146.42V55.5865L157.686 55.5865ZM82.0763 55.5865L59.6952 68.5097L59.6951 55.5865H82.0763ZM59.6951 77.1041L92.4494 58.1922V132.634H59.6951V77.1041ZM59.6951 214.147V140.078H92.4494V214.147H59.6951ZM138.975 214.147H99.8936V181.765H138.975V214.147ZM138.975 174.321H99.8936V140.078H138.975V174.321ZM138.975 132.634H99.8936V87.2242H138.975V132.634ZM138.975 79.7801H99.8936V55.5865H138.975V79.7801Z" fill="#E5E5E5"/>
<path d="M163.914 79.9177C163.914 103.558 121.11 156.22 121.11 156.22C121.11 156.22 78.3057 103.558 78.3057 79.9177C78.3057 68.5654 82.8154 57.6781 90.8427 49.6508C98.87 41.6235 109.757 37.1138 121.11 37.1138C132.462 37.1138 143.349 41.6235 151.377 49.6508C159.404 57.6781 163.914 68.5654 163.914 79.9177Z" fill="#995E34"/>
<path d="M146.42 78.0568C146.42 83.0626 144.936 87.9561 142.155 92.1183C139.374 96.2806 135.421 99.5246 130.796 101.44C126.171 103.356 121.082 103.857 116.172 102.881C111.263 101.904 106.753 99.4934 103.213 95.9537C99.6733 92.4141 97.2627 87.9042 96.2861 82.9945C95.3095 78.0848 95.8108 72.9958 97.7264 68.371C99.6421 63.7461 102.886 59.7932 107.048 57.0121C111.211 54.231 116.104 52.7466 121.11 52.7466C124.432 52.7451 127.722 53.3979 130.792 54.6679C133.862 55.9378 136.652 57.8 139.002 60.1481C141.352 62.4962 143.217 65.2843 144.49 68.3531C145.763 71.4218 146.419 74.7113 146.42 78.0335V78.0568Z" fill="white"/>
<path d="M121.022 88.048C126.23 88.048 130.451 83.8264 130.451 78.6187C130.451 73.4111 126.23 69.1895 121.022 69.1895C115.814 69.1895 111.593 73.4111 111.593 78.6187C111.593 83.8264 115.814 88.048 121.022 88.048Z" fill="#995E34"/>
<path d="M134.706 100.155C130.642 102.739 125.924 104.112 121.107 104.111C116.29 104.111 111.573 102.737 107.509 100.151C108.354 97.1964 110.139 94.5975 112.593 92.7475C115.047 90.8975 118.036 89.897 121.109 89.8975C124.182 89.8979 127.172 90.8992 129.625 92.7499C132.078 94.6005 133.862 97.1999 134.706 100.155Z" fill="#995E34"/>
<path d="M121.11 187.114C127.482 187.114 132.648 181.948 132.648 175.576C132.648 169.203 127.482 164.037 121.11 164.037C114.737 164.037 109.571 169.203 109.571 175.576C109.571 181.948 114.737 187.114 121.11 187.114Z" fill="#995E34"/>
<path d="M299.628 265.278H0.372208C0.273493 265.278 0.17882 265.238 0.109017 265.169C0.0392147 265.099 0 265.004 0 264.905C0 264.807 0.0392147 264.712 0.109017 264.642C0.17882 264.572 0.273493 264.533 0.372208 264.533H299.628C299.727 264.533 299.821 264.572 299.891 264.642C299.961 264.712 300 264.807 300 264.905C300 265.004 299.961 265.099 299.891 265.169C299.821 265.238 299.727 265.278 299.628 265.278Z" fill="#CBCBCB"/>
</g>
<defs>
<clipPath id="clip0_159_6603">
<rect width="300" height="265.278" fill="white"/>
</clipPath>
</defs>
</svg>
