<svg width="18" height="19" viewBox="0 0 18 19" fill="none" xmlns="http://www.w3.org/2000/svg">
<path d="M16.9475 1.05542C16.6132 0.720825 16.2162 0.455398 15.7792 0.274304C15.3422 0.0932102 14.8738 0 14.4008 0C13.9278 0 13.4594 0.0932102 13.0224 0.274304C12.5855 0.455398 12.1885 0.720825 11.8541 1.05542L1.78829 11.1212C1.70254 11.2069 1.64051 11.3134 1.60828 11.4303L0.0271466 17.1097C-0.00739388 17.2301 -0.00900247 17.3576 0.0224885 17.4788C0.0539795 17.6 0.117417 17.7106 0.206185 17.7989C0.294954 17.8873 0.405802 17.9502 0.527171 17.9812C0.648541 18.0121 0.775986 18.0099 0.896217 17.9748L6.57668 16.3617C6.69513 16.3291 6.80291 16.2658 6.88919 16.1784C6.97548 16.0909 7.03722 15.9823 7.06824 15.8634C7.09925 15.7446 7.09843 15.6196 7.06586 15.5011C7.03329 15.3827 6.97013 15.2749 6.8827 15.1886L3.30141 11.6013L11.6451 3.2576L14.7453 6.35785L8.35782 12.7284C8.22521 12.8601 8.15033 13.039 8.14968 13.2259C8.14902 13.4128 8.22263 13.5923 8.35432 13.7249C8.48601 13.8576 8.66499 13.9324 8.85189 13.9331C9.03879 13.9338 9.21829 13.8601 9.35091 13.7284L16.9445 6.15583C17.2791 5.82148 17.5445 5.42447 17.7256 4.9875C17.9067 4.55052 17.9999 4.08214 17.9999 3.60913C17.9999 3.13611 17.9067 2.66773 17.7256 2.23075C17.5445 1.79378 17.2791 1.39677 16.9445 1.06242L16.9475 1.05542ZM5.04255 15.3356L1.71728 16.2797L2.64836 12.9344L5.04255 15.3356ZM15.9544 5.15375L15.7444 5.36277L12.6442 2.26252L12.8532 2.0535C13.2736 1.6913 13.8154 1.50136 14.37 1.52175C14.9246 1.54213 15.451 1.77133 15.8437 2.16343C16.2364 2.55552 16.4665 3.08154 16.4878 3.63608C16.509 4.19062 16.32 4.73272 15.9584 5.15375H15.9544Z" fill="#995E34"/>
</svg>
