<svg width="316" height="283" viewBox="0 0 316 283" fill="none" xmlns="http://www.w3.org/2000/svg">
<path d="M45.1088 118.434L51.2694 105.832L65.4088 117.562L56.225 136.906L45.1088 118.434Z" fill="#589BD8"/>
<path d="M69.1072 176.685L77.6365 175.407L78.9663 180.903L73.2524 185.65L69.1072 176.685Z" fill="#6DBAB7"/>
<path d="M159.491 148.863L168.02 147.575L169.35 153.07L163.636 157.818L159.491 148.863Z" fill="#6DBAB7"/>
<path d="M182.741 225.554L191.27 224.276L192.6 229.772L186.876 234.52L182.741 225.554Z" fill="#6DBAB7"/>
<path d="M32.9641 50.303L41.483 49.0252L42.8232 54.5209L37.0989 59.2687L32.9641 50.303Z" fill="#6DBAB7"/>
<path d="M246.934 248.617L255.464 247.34L256.793 252.835L251.069 257.583L246.934 248.617Z" fill="#6DBAB7"/>
<path d="M0 130.714L8.52931 129.436L9.85909 134.931L4.14518 139.679L0 130.714Z" fill="#6DBAB7"/>
<path d="M139.482 26.4087L148.001 25.1308L149.341 30.6266L143.617 35.3743L139.482 26.4087Z" fill="#6DBAB7"/>
<path d="M122.278 184.175L121.415 178.471L128.085 181.193L129.072 188.798L122.278 184.175Z" fill="#D36476"/>
<path d="M80.9814 22.3259L85.7707 19.1053L86.1551 26.3049L79.6932 30.4501L80.9814 22.3259Z" fill="#D36476"/>
<path d="M253.874 28.5178L258.674 25.3076L259.048 32.4967L252.586 36.6419L253.874 28.5178Z" fill="#D36476"/>
<path d="M99.7234 240.753L104.523 237.533L104.897 244.732L98.4352 248.877L99.7234 240.753Z" fill="#D36476"/>
<path d="M277.343 159.221L282.485 156.603L281.987 163.792L275.078 167.127L277.343 159.221Z" fill="#D36476"/>
<path d="M306.255 39.4779L315.346 39.9766L314.026 49.5759L303.076 48.8695L306.255 39.4779Z" fill="#F6DF5C"/>
<path d="M248.524 120.137L247.34 111.109L257.022 110.652L258.341 121.54L248.524 120.137Z" fill="#F6DF5C"/>
<path d="M187.572 3.66729L195.904 0L199.052 9.16304L188.985 13.4848L187.572 3.66729Z" fill="#F6DF5C"/>
<path d="M161.724 272.523L170.056 268.855L173.204 278.018L163.127 282.34L161.724 272.523Z" fill="#F6DF5C"/>
<path d="M228.297 201.057L236.629 197.39L239.787 206.563L229.71 210.875L228.297 201.057Z" fill="#F6DF5C"/>
<path d="M104.887 70.8007L112.024 77.3042L101.541 84.3998L90.5292 74.5927L104.887 70.8007Z" fill="#589BD8"/>
<path d="M216.111 64.3802L223.258 70.8733L212.776 77.9689L201.763 68.1722L216.111 64.3802Z" fill="#589BD8"/>
<path d="M308.967 95.3812L316 102.009L305.393 108.918L294.547 98.9238L308.967 95.3812Z" fill="#589BD8"/>
<path d="M52.7133 238.841L47.3734 244.264L42.0958 235.787L50.168 227.403L52.7133 238.841Z" fill="#589BD8"/>
<path d="M145.944 107.941L160.893 92.2017L172.02 101.053L168.02 119.317L145.944 107.941Z" fill="#6DBAB7"/>
<circle cx="158.015" cy="133.013" r="42.004" fill="#62D482"/>
<path d="M144.014 134.286L152.765 142.014L172.016 125.012" stroke="white" stroke-width="5" stroke-linecap="round" stroke-linejoin="round"/>
</svg>
