<svg width="28" height="28" viewBox="0 0 28 28" fill="none" xmlns="http://www.w3.org/2000/svg">
<path d="M21.5833 14.7583V19.075C21.5833 22.715 18.1883 25.6666 14 25.6666C9.81163 25.6666 6.41663 22.715 6.41663 19.075V14.7583C6.41663 18.3983 9.81163 21 14 21C18.1883 21 21.5833 18.3983 21.5833 14.7583Z" stroke="#995E34" stroke-width="1.5" stroke-linecap="round" stroke-linejoin="round"/>
<path d="M21.5833 8.92516C21.5833 9.98683 21.2916 10.9668 20.7783 11.8068C19.53 13.8602 16.9633 15.1668 14 15.1668C11.0366 15.1668 8.46996 13.8602 7.22163 11.8068C6.7083 10.9668 6.41663 9.98683 6.41663 8.92516C6.41663 7.10516 7.26829 5.46016 8.63329 4.27016C10.01 3.0685 11.9 2.3335 14 2.3335C16.1 2.3335 17.99 3.0685 19.3666 4.2585C20.7316 5.46016 21.5833 7.10516 21.5833 8.92516Z" stroke="#995E34" stroke-width="1.5" stroke-linecap="round" stroke-linejoin="round"/>
<path d="M21.5833 8.92516V14.7585C21.5833 18.3985 18.1883 21.0002 14 21.0002C9.81163 21.0002 6.41663 18.3985 6.41663 14.7585V8.92516C6.41663 5.28516 9.81163 2.3335 14 2.3335C16.1 2.3335 17.99 3.0685 19.3666 4.2585C20.7316 5.46016 21.5833 7.10516 21.5833 8.92516Z" stroke="#995E34" stroke-width="1.5" stroke-linecap="round" stroke-linejoin="round"/>
</svg>
