<svg width="28" height="28" viewBox="0 0 28 28" fill="none" xmlns="http://www.w3.org/2000/svg">
<path d="M21.0466 15.8086C20.5566 16.287 20.2766 16.9753 20.3466 17.7103C20.4516 18.9703 21.6066 19.892 22.8666 19.892H25.0833V21.2803C25.0833 23.6953 23.1116 25.667 20.6966 25.667H7.30329C4.88829 25.667 2.91663 23.6953 2.91663 21.2803V13.4287C2.91663 11.0137 4.88829 9.04199 7.30329 9.04199H20.6966C23.1116 9.04199 25.0833 11.0137 25.0833 13.4287V15.1087H22.7266C22.0733 15.1087 21.4783 15.3653 21.0466 15.8086Z" stroke="#995E34" stroke-width="1.5" stroke-linecap="round" stroke-linejoin="round"/>
<path d="M2.91663 14.4785V9.14691C2.91663 7.75858 3.76829 6.52186 5.06329 6.03186L14.3266 2.53186C15.7733 1.98353 17.325 3.05689 17.325 4.60856V9.04188" stroke="#995E34" stroke-width="1.5" stroke-linecap="round" stroke-linejoin="round"/>
<path d="M26.3186 16.2984V18.7018C26.3186 19.3434 25.8052 19.8684 25.1519 19.8917H22.8652C21.6052 19.8917 20.4502 18.97 20.3452 17.71C20.2752 16.975 20.5552 16.2867 21.0452 15.8084C21.4769 15.365 22.0719 15.1084 22.7252 15.1084H25.1519C25.8052 15.1317 26.3186 15.6567 26.3186 16.2984Z" stroke="#995E34" stroke-width="1.5" stroke-linecap="round" stroke-linejoin="round"/>
<path d="M8.16663 14H16.3333" stroke="#995E34" stroke-width="1.5" stroke-linecap="round" stroke-linejoin="round"/>
</svg>
