<svg width="20" height="20" viewBox="0 0 20 20" fill="none" xmlns="http://www.w3.org/2000/svg">
<path d="M6 11C5.80222 11 5.60888 10.9414 5.44443 10.8315C5.27998 10.7216 5.15181 10.5654 5.07612 10.3827C5.00043 10.2 4.98063 9.99889 5.01922 9.80491C5.0578 9.61093 5.15304 9.43275 5.29289 9.29289C5.43275 9.15304 5.61093 9.0578 5.80491 9.01922C5.99889 8.98063 6.19996 9.00043 6.38268 9.07612C6.56541 9.15181 6.72159 9.27998 6.83147 9.44443C6.94135 9.60888 7 9.80222 7 10C7 10.2652 6.89464 10.5196 6.70711 10.7071C6.51957 10.8946 6.26522 11 6 11Z" fill="#414141"/>
<path d="M6 15C5.80222 15 5.60888 14.9414 5.44443 14.8315C5.27998 14.7216 5.15181 14.5654 5.07612 14.3827C5.00043 14.2 4.98063 13.9989 5.01922 13.8049C5.0578 13.6109 5.15304 13.4327 5.29289 13.2929C5.43275 13.153 5.61093 13.0578 5.80491 13.0192C5.99889 12.9806 6.19996 13.0004 6.38268 13.0761C6.56541 13.1518 6.72159 13.28 6.83147 13.4444C6.94135 13.6089 7 13.8022 7 14C7 14.2652 6.89464 14.5196 6.70711 14.7071C6.51957 14.8946 6.26522 15 6 15Z" fill="#414141"/>
<path d="M9 10C9 10.1978 9.05865 10.3911 9.16853 10.5556C9.27841 10.72 9.43459 10.8482 9.61732 10.9239C9.80004 10.9996 10.0011 11.0194 10.1951 10.9808C10.3891 10.9422 10.5673 10.847 10.7071 10.7071C10.847 10.5673 10.9422 10.3891 10.9808 10.1951C11.0194 10.0011 10.9996 9.80004 10.9239 9.61732C10.8482 9.43459 10.72 9.27841 10.5556 9.16853C10.3911 9.05865 10.1978 9 10 9C9.73478 9 9.48043 9.10536 9.29289 9.29289C9.10536 9.48043 9 9.73478 9 10Z" fill="#414141"/>
<path d="M9 14C9 14.1978 9.05865 14.3911 9.16853 14.5556C9.27841 14.72 9.43459 14.8482 9.61732 14.9239C9.80004 14.9996 10.0011 15.0194 10.1951 14.9808C10.3891 14.9422 10.5673 14.847 10.7071 14.7071C10.847 14.5673 10.9422 14.3891 10.9808 14.1951C11.0194 14.0011 10.9996 13.8 10.9239 13.6173C10.8482 13.4346 10.72 13.2784 10.5556 13.1685C10.3911 13.0586 10.1978 13 10 13C9.73478 13 9.48043 13.1054 9.29289 13.2929C9.10536 13.4804 9 13.7348 9 14Z" fill="#414141"/>
<path d="M14 11C13.8022 11 13.6089 10.9414 13.4444 10.8315C13.28 10.7216 13.1518 10.5654 13.0761 10.3827C13.0004 10.2 12.9806 9.99889 13.0192 9.80491C13.0578 9.61093 13.153 9.43275 13.2929 9.29289C13.4327 9.15304 13.6109 9.0578 13.8049 9.01922C13.9989 8.98063 14.2 9.00043 14.3827 9.07612C14.5654 9.15181 14.7216 9.27998 14.8315 9.44443C14.9414 9.60888 15 9.80222 15 10C15 10.2652 14.8946 10.5196 14.7071 10.7071C14.5196 10.8946 14.2652 11 14 11Z" fill="#414141"/>
<path d="M14 15C13.8022 15 13.6089 14.9414 13.4444 14.8315C13.28 14.7216 13.1518 14.5654 13.0761 14.3827C13.0004 14.2 12.9806 13.9989 13.0192 13.8049C13.0578 13.6109 13.153 13.4327 13.2929 13.2929C13.4327 13.153 13.6109 13.0578 13.8049 13.0192C13.9989 12.9806 14.2 13.0004 14.3827 13.0761C14.5654 13.1518 14.7216 13.28 14.8315 13.4444C14.9414 13.6089 15 13.8022 15 14C15 14.2652 14.8946 14.5196 14.7071 14.7071C14.5196 14.8946 14.2652 15 14 15Z" fill="#414141"/>
<path d="M6 5C5.73478 5 5.48043 5.10536 5.29289 5.29289C5.10536 5.48043 5 5.73478 5 6C5 6.26522 5.10536 6.51957 5.29289 6.70711C5.48043 6.89464 5.73478 7 6 7H14C14.2652 7 14.5196 6.89464 14.7071 6.70711C14.8946 6.51957 15 6.26522 15 6C15 5.73478 14.8946 5.48043 14.7071 5.29289C14.5196 5.10536 14.2652 5 14 5H6Z" fill="#414141"/>
<path fill-rule="evenodd" clip-rule="evenodd" d="M3.33333 0C2.44928 0 1.60143 0.35119 0.976311 0.976311C0.35119 1.60143 0 2.44928 0 3.33333V16.6667C0 17.5507 0.35119 18.3986 0.976311 19.0237C1.60143 19.6488 2.44928 20 3.33333 20H16.6667C17.5507 20 18.3986 19.6488 19.0237 19.0237C19.6488 18.3986 20 17.5507 20 16.6667V3.33333C20 2.44928 19.6488 1.60143 19.0237 0.976311C18.3986 0.35119 17.5507 0 16.6667 0H3.33333ZM16.8889 2H3.11111C2.81643 2 2.53381 2.11706 2.32544 2.32544C2.11706 2.53381 2 2.81643 2 3.11111V16.8889C2 17.1836 2.11706 17.4662 2.32544 17.6746C2.53381 17.8829 2.81643 18 3.11111 18H16.8889C17.1836 18 17.4662 17.8829 17.6746 17.6746C17.8829 17.4662 18 17.1836 18 16.8889V3.11111C18 2.81643 17.8829 2.53381 17.6746 2.32544C17.4662 2.11706 17.1836 2 16.8889 2Z" fill="#414141"/>
</svg>
